#!OML:ASF F:\VICON\USERDATA\INSTALL\Justin_Nancy\Justin_Nancy.ASF
:FULLY-SPECIFIED
:DEGREES
35
root 0.784082 16.5831 -16.0697 6.74782 -3.4843 -1.40531
lowerback 14.2489 0.883393 4.26426
upperback 0.586137 2.13413 3.6072
thorax -7.372 0.951879 0.997549
lowerneck -21.5717 -3.87021 -10.3585
upperneck 9.85328 -2.85921 4.19192
head 6.69434 -1.41475 2.68561
rclavicle -1.07344e-014 0
rhumerus -33.8932 14.2966 -90.5581
rradius 115.47
rwrist -16.216
rhand -16.4147 32.6186
rfingers 7.12502
rthumb 9.8001 2.86663
lclavicle -1.07344e-014 0
lhumerus -57.0371 -3.87923 96.9434
lradius 93.5084
lwrist 23.9023
lhand -16.8846 7.00303
lfingers 7.12502
lthumb 9.34669 36.7758
rfemur -11.2204 -1.83955 30.2086
rtibia 46.8393
rfoot -20.79 -16.5291
rtoes -19.6334
lfemur -37.7957 4.00718 -14.9298
ltibia 95.714
lfoot 2.94984 -2.43721
ltoes -9.32528
36
root 0.782667 16.6769 -15.4482 6.64588 -3.5425 -1.79202
lowerback 14.1046 1.32101 4.96515
upperback 0.530262 2.81218 3.52371
thorax -7.30609 1.25547 0.382448
lowerneck -21.2276 -4.19563 -10.3899
upperneck 10.1982 -3.35193 4.32754
head 6.79269 -1.65066 2.67819
rclavicle -2.78299e-015 9.54166e-015
rhumerus -33.1542 14.2488 -90.4368
rradius 118.398
rwrist -16.1512
rhand -16.3707 32.5206
rfingers 7.12502
rthumb 9.84254 2.77068
lclavicle -2.78299e-015 9.54166e-015
lhumerus -58.2121 -4.96587 97.112
lradius 94.8115
lwrist 24.7123
lhand -16.6342 7.79243
lfingers 7.12502
lthumb 9.58826 37.5542
rfemur -7.80391 -1.54605 30.2103
rtibia 44.7647
rfoot -18.8336 -15.4782
rtoes -20.1888
lfemur -39.5223 4.34853 -14.8263
ltibia 93.7445
lfoot 3.57118 -2.19587
ltoes -1.52165
37
root 0.760023 16.7521 -14.8776 7.18937 -2.00517 -2.11418
lowerback 14.0184 1.29732 5.67066
upperback -0.0198967 2.9275 3.53055
thorax -7.81623 1.26873 -0.0287335
lowerneck -21.2729 -4.56974 -10.5758
upperneck 10.8982 -3.85685 4.63682
head 7.07891 -1.88403 2.74812
rclavicle 2.38542e-014 1.43125e-014
rhumerus -32.4591 13.9466 -90.2311
rradius 121.293
rwrist -15.7653
rhand -16.119 33.4394
rfingers 7.12502
rthumb 10.0853 3.70105
lclavicle 2.38542e-014 1.43125e-014
lhumerus -59.425 -5.94548 97.2838
lradius 96.0278
lwrist 25.1989
lhand -16.1125 8.30655
lfingers 7.12502
lthumb 10.0916 38.0446
rfemur -5.56882 -2.20823 30.579
rtibia 42.7362
rfoot -16.551 -14.3537
rtoes -21.8393
lfemur -42.6293 3.21941 -14.6567
ltibia 91.6442
lfoot -1.70965 -0.669086
ltoes -21.1785
38
root 0.791642 16.8631 -14.1536 6.76979 -3.66882 -2.4697
lowerback 13.2413 2.25711 6.34423
upperback 0.276967 4.19682 3.34729
thorax -6.94579 1.88483 -0.806313
lowerneck -21.0441 -4.88545 -10.8218
upperneck 11.2307 -4.29227 4.9231
head 7.19843 -2.08494 2.82963
rclavicle 3.27995e-014 4.77083e-015
rhumerus -31.7177 13.511 -89.9078
rradius 123.747
rwrist -15.3904
rhand -15.8174 35.7634
rfingers 7.12502
rthumb 10.3763 6.03947
lclavicle 3.27995e-014 4.77083e-015
lhumerus -60.4921 -6.68061 97.4544
lradius 97.0867
lwrist 25.1327
lhand -15.3726 8.10853
lfingers 7.12502
lthumb 10.8053 37.8106
rfemur -1.45243 -0.959445 29.9598
rtibia 40.211
rfoot -13.1718 -11.8384
rtoes -24.8118
lfemur -42.3187 4.6277 -14.949
ltibia 88.5359
lfoot -1.22779 -0.626511
ltoes -9.97485
39
root 0.793483 16.9623 -13.5141 6.72742 -3.15996 -2.60256
lowerback 12.734 2.44147 6.79178
upperback 0.233033 4.46354 3.35317
thorax -6.66044 2.00976 -1.06957
lowerneck -20.7102 -5.12021 -11.0768
upperneck 11.4476 -4.61116 5.10165
head 7.25289 -2.24029 2.89228
rclavicle 1.13307e-014 0
rhumerus -30.9538 13.6365 -89.4517
rradius 125.488
rwrist -15.0409
rhand -15.8548 37.675
rfingers 7.12502
rthumb 10.3402 7.94918
lclavicle 1.13307e-014 0
lhumerus -61.3193 -6.9539 97.5651
lradius 97.8604
lwrist 24.9906
lhand -15.0851 7.20509
lfingers 7.12502
lthumb 11.0827 36.8925
rfemur 1.61837 -1.12191 29.665
rtibia 37.6866
rfoot -9.19049 -9.66969
rtoes -26.1091
lfemur -43.5298 4.10726 -15.2007
ltibia 85.3493
lfoot -1.99455 -0.778069
ltoes -7.48349
40
root 0.792609 17.0616 -12.8672 6.71331 -2.49419 -2.83384
lowerback 12.31 2.61704 7.29034
upperback -0.00175241 4.74624 3.37556
thorax -6.61934 2.13001 -1.35052
lowerneck -20.2814 -5.34728 -11.0616
upperneck 11.8625 -4.98337 5.09537
head 7.3511 -2.43067 2.84482
rclavicle 5.88403e-014 1.59028e-015
rhumerus -30.4525 14.0443 -89.0679
rradius 127.265
rwrist -14.2894
rhand -16.4244 36.4177
rfingers 7.12502
rthumb 9.7907 6.66531
lclavicle 5.88403e-014 1.59028e-015
lhumerus -62.4488 -7.17669 97.6233
lradius 98.6293
lwrist 24.9819
lhand -14.8052 6.73509
lfingers 7.12502
lthumb 11.3527 36.4078
rfemur 4.68277 -1.31978 29.5236
rtibia 34.8127
rfoot -4.77536 -7.52878
rtoes -26.1274
lfemur -44.4895 3.5424 -15.3422
ltibia 81.7727
lfoot -3.27893 -1.03179
ltoes -9.49067
41
root 0.794072 17.1459 -12.2095 6.74827 -1.61636 -2.95289
lowerback 11.7368 2.68905 7.70558
upperback -0.304719 4.86468 3.368
thorax -6.57933 2.17124 -1.58028
lowerneck -19.844 -5.49891 -11.1134
upperneck 12.3831 -5.26691 5.2457
head 7.48166 -2.5686 2.87265
rclavicle 4.73108e-014 3.97569e-014
rhumerus -30.188 14.625 -88.7476
rradius 129.307
rwrist -14.0003
rhand -16.4249 35.1978
rfingers 7.12502
rthumb 9.79026 5.44535
lclavicle 4.73108e-014 3.97569e-014
lhumerus -63.5973 -7.11026 97.539
lradius 99.3372
lwrist 25.0688
lhand -14.5725 7.25999
lfingers 7.12502
lthumb 11.5771 36.9202
rfemur 7.59342 -1.55858 29.2893
rtibia 31.9415
rfoot 0.307732 -5.67544
rtoes -24.5194
lfemur -45.2877 2.6465 -15.601
ltibia 77.9531
lfoot -3.91171 -1.38754
ltoes -10.098
42
root 0.790615 17.2198 -11.5529 6.72913 -0.645483 -2.90877
lowerback 11.0474 2.74219 7.92389
upperback -0.464232 4.90072 3.32635
thorax -6.33632 2.18937 -1.71206
lowerneck -19.3552 -5.71924 -11.2026
upperneck 12.5498 -5.64539 5.46988
head 7.49779 -2.74212 2.91946
rclavicle -4.6118e-014 1.59028e-015
rhumerus -30.0144 15.1378 -88.4475
rradius 130.948
rwrist -13.2191
rhand -16.9486 35.8304
rfingers 7.12502
rthumb 9.28493 6.05486
lclavicle -4.6118e-014 1.59028e-015
lhumerus -64.3896 -7.03581 97.4294
lradius 99.9619
lwrist 25.3058
lhand -14.7112 7.74217
lfingers 7.12502
lthumb 11.4433 37.4099
rfemur 10.482 -1.56697 29.0428
rtibia 28.9454
rfoot 6.09706 -4.53044
rtoes -23.4852
lfemur -45.8489 1.58928 -15.9933
ltibia 73.8082
lfoot -4.05084 -1.8733
ltoes -10.1352
43
root 0.776406 17.288 -10.9011 6.7346 0.376414 -2.89576
lowerback 10.3775 2.80343 8.12646
upperback -0.603757 4.93765 3.20242
thorax -6.07554 2.20842 -1.92081
lowerneck -18.9943 -5.98029 -11.1827
upperneck 12.7388 -6.11706 5.81542
head 7.55201 -2.94167 2.97586
rclavicle -1.27222e-014 -6.36111e-015
rhumerus -30.0184 15.314 -88.2314
rradius 132.52
rwrist -12.5798
rhand -16.7401 36.3301
rfingers 7.12502
rthumb 9.48613 6.5636
lclavicle -1.27222e-014 -6.36111e-015
lhumerus -65.0643 -7.11812 97.079
lradius 100.621
lwrist 25.6418
lhand -14.4343 7.96978
lfingers 7.12502
lthumb 11.7103 37.6225
rfemur 13.1874 -1.15814 29.135
rtibia 25.9996
rfoot 12.1928 -4.31371
rtoes -24.389
lfemur -46.2349 0.659821 -16.2867
ltibia 69.3581
lfoot -4.20647 -2.71902
ltoes -11.0665
44
root 0.767776 17.3522 -10.2349 6.73391 1.18566 -2.72913
lowerback 9.77264 2.89345 8.10297
upperback -0.832184 4.9996 3.08708
thorax -5.96228 2.23935 -2.00553
lowerneck -18.649 -6.18223 -11.3459
upperneck 13.1103 -6.48708 6.27895
head 7.67256 -3.09269 3.1143
rclavicle -2.84262e-014 2.70347e-014
rhumerus -30.4778 15.468 -88.0461
rradius 133.839
rwrist -12.3212
rhand -16.2031 37.0171
rfingers 7.12502
rthumb 10.0043 7.27485
lclavicle -2.84262e-014 2.70347e-014
lhumerus -65.9962 -6.99602 96.806
lradius 101.371
lwrist 26.0289
lhand -14.554 8.1222
lfingers 7.12502
lthumb 11.5949 37.7814
rfemur 15.8027 -0.354073 29.1909
rtibia 23.3526
rfoot 17.9155 -4.49746
rtoes -10.2539
lfemur -46.2432 -0.22291 -16.7475
ltibia 64.6224
lfoot -4.46359 -3.72023
ltoes -11.7805
45
root 0.762653 17.4215 -9.56931 6.73078 1.74915 -2.49751
lowerback 9.38715 3.02392 8.03185
upperback -1.09578 5.13346 2.91204
thorax -6.00197 2.29837 -2.14993
lowerneck -18.4169 -6.38118 -11.607
upperneck 13.4538 -6.85559 6.95317
head 7.81691 -3.22542 3.33816
rclavicle -2.66371e-014 1.90833e-014
rhumerus -31.2792 15.7648 -88.0531
rradius 135.265
rwrist -12.1078
rhand -15.9796 36.8477
rfingers 7.12502
rthumb 10.2199 7.11595
lclavicle -2.66371e-014 1.90833e-014
lhumerus -66.8578 -6.85164 96.4606
lradius 102.14
lwrist 26.5356
lhand -15.0602 7.59843
lfingers 7.12502
lthumb 11.1066 37.2845
rfemur 18.1399 0.681538 29.262
rtibia 21.3281
rfoot 22.7587 -4.29694
rtoes 2.74865
lfemur -45.9285 -1.12429 -17.2236
ltibia 59.6286
lfoot -4.16363 -4.63657
ltoes -11.8602
